# Blender v2.78 (sub 0) OBJ File: 'crate.blend'
# www.blender.org
mtllib crate.mtl
o Cube
v 0.052713 -0.017866 -0.035196
v 0.052713 -0.017866 0.036065
v -0.058649 -0.017866 0.036064
v -0.058649 -0.017866 -0.035197
v 0.052713 0.040146 -0.035196
v 0.052713 0.040146 0.036065
v -0.058649 0.040146 0.036064
v -0.058649 0.040146 -0.035197
v 0.052713 0.032915 -0.035196
v -0.058649 0.032915 0.036064
v 0.052713 0.020220 -0.035196
v -0.058649 0.020220 -0.035197
v -0.058649 0.032915 -0.027469
v 0.052713 0.032915 -0.027469
v 0.052713 0.020220 -0.027469
v -0.058649 0.020220 -0.027469
v 0.052713 0.032915 0.028399
v 0.052713 0.020220 0.028399
v -0.058649 0.032915 0.028399
v -0.058649 0.020220 0.028399
vt 0.0790 0.8194
vt 0.0042 0.9973
vt 0.0010 0.0017
vt 0.0002 0.9934
vt 1.0033 0.9229
vt -0.0029 -0.0023
vt 0.0080 0.9923
vt 1.0031 0.9968
vt 0.9263 0.9104
vt 1.0148 0.9166
vt 0.9261 0.8372
vt 1.0090 0.8361
vt -0.0023 -0.0024
vt 0.9979 0.7156
vt 0.0011 0.7180
vt 0.9244 0.0000
vt 1.0037 0.9165
vt 0.0031 0.9161
vt 0.1242 0.9185
vt 0.6227 0.9164
vt 1.0109 0.9206
vt 1.0069 0.9948
vt 1.0017 -0.0063
vt 0.9183 0.9160
vt 1.0130 0.9188
vt 1.0032 -0.0091
vt 1.0001 0.9884
vt 0.0888 0.9164
vt 0.0071 0.9150
vt 1.0058 0.9164
vt 0.9284 0.9135
vt 0.9219 0.9164
vt -0.0010 0.9127
vt 0.9958 -0.0048
vt 1.0031 0.9929
vt 0.0029 0.9908
vt 0.0032 0.8087
vt 0.0695 0.0011
vt 0.0692 0.8062
vt 0.9979 -0.0009
vt 0.2845 0.6474
vt 0.4564 0.3456
vt 0.4859 0.6354
vt 0.2551 0.3570
vn 1.0000 0.0000 0.0000
vn -0.0000 -0.0000 1.0000
vn -1.0000 0.0000 -0.0000
vn 0.0000 0.0000 -1.0000
vn 0.0000 -1.0000 0.0000
usemtl Material
s off
f 18/1/1 6/2/1 2/3/1
f 6/4/2 10/5/2 2/6/2
f 7/7/3 8/8/3 13/9/3
f 9/10/1 15/11/1 11/12/1
f 1/13/4 12/14/4 11/15/4
f 16/16/3 4/17/3 3/18/3
f 17/19/1 14/20/1 6/2/1
f 9/21/1 5/22/1 14/20/1
f 2/3/1 1/23/1 15/24/1
f 11/25/1 15/24/1 1/23/1
f 14/20/1 5/22/1 6/2/1
f 2/3/1 15/24/1 18/1/1
f 18/1/1 17/19/1 6/2/1
f 3/26/2 2/6/2 10/5/2
f 6/4/2 7/27/2 10/5/2
f 19/28/3 10/29/3 7/7/3
f 8/8/3 12/30/3 13/9/3
f 13/9/3 19/28/3 7/7/3
f 12/30/3 16/31/3 13/9/3
f 9/10/1 14/32/1 15/11/1
f 9/33/4 11/15/4 12/14/4
f 1/13/4 4/34/4 12/14/4
f 12/14/4 8/35/4 9/33/4
f 5/36/4 9/33/4 8/35/4
f 3/18/3 10/37/3 20/38/3
f 20/38/3 16/16/3 3/18/3
f 10/37/3 19/39/3 20/38/3
f 12/40/3 4/17/3 16/16/3
usemtl Material_NONE
f 2/41/5 4/42/5 1/43/5
f 2/41/5 3/44/5 4/42/5
